<?xml version="1.0" standalone="no"?>
<!DOCTYPE svg PUBLIC "-//W3C//DTD SVG 20010904//EN"
 "http://www.w3.org/TR/2001/REC-SVG-20010904/DTD/svg10.dtd">
<svg version="1.0" xmlns="http://www.w3.org/2000/svg"
 width="700.000000pt" height="700.000000pt" viewBox="0 0 700.000000 700.000000"
 preserveAspectRatio="xMidYMid meet">
<metadata>
Created by potrace 1.11, written by Peter Selinger 2001-2013
</metadata>
<g transform="translate(0.000000,700.000000) scale(0.100000,-0.100000)"
fill="#000000" stroke="none">
<path d="M4367 6564 c-1 -1 -40 -4 -87 -8 -108 -8 -154 -14 -210 -30 -25 -8
-47 -14 -50 -14 -3 0 -12 -3 -20 -5 -259 -80 -475 -226 -643 -434 -32 -39 -57
-73 -57 -77 0 -3 39 -25 88 -48 79 -38 261 -150 294 -180 7 -7 30 -26 52 -42
52 -39 192 -179 241 -241 22 -27 43 -52 46 -55 19 -15 136 -209 178 -295 68
-139 133 -338 147 -448 3 -23 7 -48 10 -56 10 -29 18 -181 17 -292 -2 -100
-13 -201 -38 -339 -4 -19 -8 -39 -8 -45 -4 -24 139 -21 293 6 95 16 262 75
360 126 187 98 310 206 468 408 30 38 105 174 135 246 70 164 100 315 101 504
1 139 -9 216 -40 335 -133 494 -524 861 -1024 959 -49 10 -248 29 -253 25z"/>
<path d="M2497 5684 c-1 -2 -25 -6 -52 -9 -185 -23 -393 -103 -562 -217 -94
-63 -262 -228 -325 -318 -218 -310 -295 -690 -213 -1050 86 -386 345 -715 695
-887 141 -69 206 -90 380 -125 65 -12 267 -16 363 -6 263 29 540 159 746 353
110 103 237 282 291 410 12 28 25 59 30 70 5 11 18 49 29 85 105 341 60 745
-115 1035 -19 32 -34 61 -34 65 0 5 -3 10 -7 12 -5 2 -34 37 -65 78 -195 259
-502 441 -828 491 -64 10 -326 20 -333 13z"/>
<path d="M4163 3492 c-32 -3 -36 -7 -102 -105 -90 -135 -285 -339 -398 -415
l-38 -26 35 -8 c77 -19 328 -92 380 -110 132 -48 272 -102 360 -140 109 -48
357 -173 419 -212 22 -14 43 -26 45 -26 9 0 231 -144 321 -209 83 -60 245
-186 303 -235 62 -54 140 -180 170 -276 24 -75 24 -77 31 -397 l1 -22 457 1
c502 1 533 4 630 59 105 60 188 172 212 287 16 76 15 761 -1 816 -17 56 -85
123 -242 238 -28 21 -56 41 -61 46 -26 22 -201 135 -295 192 -133 79 -410 215
-563 275 -349 137 -681 214 -1117 261 -69 7 -494 12 -547 6z"/>
<path d="M2468 2625 c-2 -2 -52 -6 -113 -9 -150 -9 -229 -18 -335 -36 -30 -5
-73 -12 -95 -15 -176 -26 -621 -153 -780 -224 -211 -94 -299 -136 -390 -185
-60 -33 -120 -64 -132 -70 -13 -6 -23 -14 -23 -18 0 -5 -5 -8 -10 -8 -18 0
-228 -141 -363 -243 -242 -184 -228 -146 -227 -599 1 -194 6 -378 12 -408 15
-82 70 -188 126 -245 43 -43 70 -60 164 -106 9 -5 38 -11 65 -15 60 -8 4464
-9 4515 0 147 24 281 132 339 275 23 54 23 67 27 429 4 397 -1 455 -42 510
-20 28 -103 101 -182 159 -382 284 -744 474 -1164 612 -237 77 -540 145 -740
167 -25 2 -58 6 -75 8 -104 14 -566 30 -577 21z"/>
</g>
</svg>
